# xmcd CD database file
#
# Track frame offsets:
#	182
#	15257
#	26957
#	39107
#	54932
#	73270
#	86957
#	100532
#	113032
#	126557
#	139307
#	154682
#
# Disc length: 2321 seconds
#
# Revision: 2
# Processed by: cddbd v1.4PL0 Copyright (c) Steve Scherf et al.
# Submitted via: CDex 1.40Release
#
DISCID=9c090f0c
DTITLE=Milva - Tango
DYEAR=1968
DGENRE=Tango
TTITLE0=La Cumparsita (Questo Tango)
TTITLE1=A Media Luz (Guardando Intorno A Te)
TTITLE2=Bandoneon Arraballero (Il Cantastorie Col Bandoneon)
TTITLE3=Inspiracion (La Mia Vita Cambiera)
TTITLE4=Cielo Azzurro (Stanotte Sogneró)
TTITLE5=Adios Muchachos
TTITLE6=Duelo Criollo (La Donna Del Buono A Nulla)
TTITLE7=Rodriguez Peña (Rodriguez Morirai)
TTITLE8=El Choclo (All'Osteria)
TTITLE9=Blue Tango (Il Diario Sa)
TTITLE10=Poema (So Che Nel Cielo)
TTITLE11=Adios, Pampa Mia
EXTD=YEAR: 1968 ID3G: 113
EXTT0=
EXTT1=
EXTT2=
EXTT3=
EXTT4=
EXTT5=
EXTT6=
EXTT7=
EXTT8=
EXTT9=
EXTT10=
EXTT11=
PLAYORDER=
